<?xml version="1.0" standalone="no"?>
<svg xmlns="http://www.w3.org/2000/svg" viewBox="0 0 180.336 36" width="180.336" height="36"><g fill="#6a8bff" color="#6a8bff" transform="translate(0 4) scale(0.5833334)"><svg width="48.0" height="48.0" x="0.0" y="0.0" viewBox="0 0 48 48"><path fill="currentColor" fill-rule="evenodd" d="M21.088 35.003c-.108 0-.27 0-.432-.054-1.294-.27-1.294-1.403-1.348-2.212-.054-.862-.108-1.186-.54-1.887-.215-.324.054-.647.378-.647.054 0 .108 0 .216.054 1.402.7 3.344 1.887 3.29 3.182 0 .054-.216 1.564-1.564 1.564m-2.643-14.994c-.054.162-.162.27-.378.378a1.787 1.787 0 0 1-1.294 0c-.593-.27-1.133-.701-1.564-1.079-.701-.593-1.348-1.132-2.157-.97-.54.053-.971.377-1.349.97-.161.27-.27.594-.161.917.215.755 1.024 1.187 2.319 1.888 2.21 1.186 4.045 2.265 4.045 3.883v.431c0 .108-.054.162-.054.27 0 .054-.054.108-.054.162 0 .054-.054.108-.054.162-.054.107-.108.161-.216.27l-.162.161c-.431.324-1.024.485-1.564.485-.755 0-1.726-.323-1.887-1.294-.27-1.402-2.535-3.074-4.53-3.236-.972-.108-1.834.162-2.428.755l-.215.27c-.054.054-.108.162-.162.216-.054.107-.108.161-.162.27 0 .053-.054.053-.054.107-.054.054-.054.108-.108.216-.054 0-.054.054-.054.108-.054.054-.054.162-.054.215-.27 1.187 1.24 2.104 3.236 3.344 3.29 1.996 5.879 3.83 4.908 6.095-.216.485-.647.97-1.186 1.294a3.536 3.536 0 0 1-1.78.485c-1.24 0-2.265-.755-2.859-2.103-.593-1.348-1.294-2.05-2.103-2.05-.593 0-1.133.324-1.51.971-.162.378-.324.81-.324 1.295-1.833-3.236-2.912-7.011-2.912-10.949C1.618 11.596 11.649 1.564 24 1.564c1.672 0 3.344.162 4.962.54.593.162.809.54.917.863.161.539 0 1.186-.432 1.564-.377.377-.97.431-1.672.215-1.456-.431-2.912-.215-3.775.648-.593.593-.809 1.402-.54 2.157.216.647.918 1.726 3.29 2.157 1.834.324 3.183.216 4.854.108a54.109 54.109 0 0 1 3.29-.108c3.128 0 4.854 1.564 5.394 2.859.377.917.27 1.78-.324 2.373-1.186 1.186-4.207-.216-5.609-1.025-.162-.108-.27-.162-.431-.27-.378-.215-.863-.108-1.08.27-.215.378-.107.863.217 1.079.054.054.215.161.431.27 1.834 1.186 2.859 2.804 2.859 4.476 0 1.402-.755 2.642-2.05 3.451-1.025.594-1.941.648-2.643.054-.7-.593-.97-1.672-.593-2.696.378-1.133.216-2.212-.485-3.02-1.133-1.295-3.506-1.78-6.04-1.295-.162.054-.324.054-.432.108-.917.27-2.697.97-4.045 2.157-.485-1.618-2.157-2.642-3.506-3.397-.809-.486-1.887-1.133-1.887-1.51 0-.486.593-1.241 1.24-1.403.593-.162 1.133.216 1.618 1.025.755 1.348 2.157 2.265 3.398 2.157 1.025-.054 1.887-.647 2.373-1.726.377-.809.377-1.833.054-2.696-.27-.701-.917-1.618-2.427-2.212a.797.797 0 0 0-1.025.432.797.797 0 0 0 .432 1.025c.809.323 1.294.755 1.51 1.294.215.54.108 1.079 0 1.402-.216.54-.54.81-.971.81-.647.053-1.51-.54-1.942-1.349-1.186-2.103-2.804-1.942-3.397-1.78-1.349.324-2.481 1.672-2.481 2.966 0 1.295 1.294 2.05 2.642 2.859 1.996 1.186 3.236 2.05 2.75 3.613M23.947 0c1.834 0 3.614.216 5.34.594 1.078.215 1.833.97 2.103 1.995.27 1.079-.054 2.32-.863 3.128-.486.432-1.564 1.133-3.29.594-1.079-.324-1.834-.054-2.157.27-.108.107-.216.323-.162.539.108.377.701.862 2.05 1.078 1.671.27 2.912.216 4.476.108.97-.054 2.05-.108 3.397-.108 3.938 0 6.149 2.05 6.904 3.83.647 1.51.377 3.074-.647 4.098-1.025 1.025-2.481 1.079-3.884.755.54.917.81 1.888.81 2.913 0 1.995-1.025 3.775-2.859 4.854-1.564.97-3.236.97-4.476-.054-1.24-1.025-1.672-2.859-1.079-4.477.216-.593.108-1.078-.216-1.456-.72-.824-2.424-1.107-4.22-.802l-.256.047h-.054c-.054.054-.162.054-.216.108-1.186.54-2.48 3.236-2.373 6.256 0 1.672.432 5.77 4.369 7.227 1.78.701 3.505 1.025 5.123 1.025 2.75 0 5.07-.971 7.12-2.427 1.132-.755 2.21-1.726 3.235-2.697 2.178-2.333 3.708-4.966 4.014-6.891l.031-.228v-.054c0-.054.054-.108.054-.162 0 0 .03-.03.046-.068l.008-.04.108-.107.023-.023.085-.085s.054-.054.108-.054c.036 0 .072-.024.108-.04l.054-.014h.323c.054 0 .108.054.162.054 0 0 .03.03.068.045l.04.009.216.215s.053.054.053.108c0 .036.024.072.04.108l.014.054v.054c.216 1.348.324 2.157.324 3.667 0 12.868-10.202 23.41-23.07 23.881l-.39.012h-1.834c-1.618-.054-3.236-.27-4.746-.702-.122 0-.243-.03-.364-.068l-.122-.04h-.054c-.054 0-.108-.053-.162-.053C7.281 44.063 0 34.84 0 23.946 0 10.733 10.787-.054 23.946 0zm16.611 18.23c.378 0 .701.108 1.079.323 1.618 1.079 2.373 2.265 2.157 3.506 0 .108-.054.162-.054.216-.323.917-1.132 1.833-2.373 1.833-.27 0-.593-.054-.863-.161a2.387 2.387 0 0 1-1.51-1.618 3.42 3.42 0 0 1-.073-1.096l.02-.145v-.216c-.055 0-.055 0-.055-.054-.27-.539-.215-1.186.108-1.725.378-.54.917-.863 1.564-.863zm0 1.672c-.161 0-.27.161-.215.323.215.378.215.54.16 1.025-.053.431-.106 1.025.54 1.24a.687.687 0 0 0 .324.054c.594 0 .81-.7.81-.647.107-.701-.864-1.456-1.51-1.941 0-.054-.055-.054-.109-.054zM35.542 2.319c.754.108 3.073.378 3.667 2.104 0 .054.054.162.054.215.054.216.161 1.133-.432 1.942-.377.54-1.025.863-1.726.97h-.323c-.7 0-1.348-.269-1.834-.808-.323-.324-.485-.701-.593-.97v-.055c0-.054-.054-.108-.054-.108l-.054-.054c-.593-.431-.862-1.24-.647-1.995.216-.755.917-1.24 1.726-1.24zm-.162 1.564c-.216 0-.324.27-.216.378.378.27.485.431.648.809.161.377.376.863.97.863h.162c.868-.097.83-.84.812-.996l-.003-.029c-.216-.647-1.51-.917-2.373-1.025z"></path></svg></g><path fill="#5e24c3" fill-rule="nonzero" d="M6.50 18.05Q4.63 18.05 3.16 17.23Q1.68 16.42 0.84 14.94Q0 13.46 0 11.62L0 11.62Q0 9.77 0.84 8.30Q1.68 6.84 3.16 6.02Q4.63 5.21 6.50 5.21L6.50 5.21Q8.14 5.21 9.42 5.84Q10.70 6.48 11.45 7.70L11.45 7.70L10.18 8.57Q9.55 7.63 8.59 7.16Q7.63 6.70 6.50 6.70L6.50 6.70Q5.14 6.70 4.04 7.31Q2.95 7.92 2.34 9.05Q1.73 10.18 1.73 11.62L1.73 11.62Q1.73 13.08 2.34 14.20Q2.95 15.31 4.04 15.92Q5.14 16.54 6.50 16.54L6.50 16.54Q7.63 16.54 8.59 16.08Q9.55 15.62 10.18 14.69L10.18 14.69L11.45 15.55Q10.70 16.78 9.41 17.41Q8.11 18.05 6.50 18.05L6.50 18.05ZM19.73 18.05Q17.90 18.05 16.44 17.22Q14.98 16.39 14.14 14.93Q13.30 13.46 13.30 11.62L13.30 11.62Q13.30 9.77 14.14 8.30Q14.98 6.84 16.44 6.02Q17.90 5.21 19.73 5.21L19.73 5.21Q21.55 5.21 23.02 6.02Q24.48 6.84 25.31 8.30Q26.14 9.77 26.14 11.62L26.14 11.62Q26.14 13.46 25.31 14.93Q24.48 16.39 23.02 17.22Q21.55 18.05 19.73 18.05L19.73 18.05ZM19.73 16.54Q21.07 16.54 22.14 15.92Q23.21 15.31 23.81 14.18Q24.41 13.06 24.41 11.62L24.41 11.62Q24.41 10.18 23.81 9.05Q23.21 7.92 22.14 7.31Q21.07 6.70 19.73 6.70L19.73 6.70Q18.38 6.70 17.32 7.31Q16.25 7.92 15.64 9.05Q15.02 10.18 15.02 11.62L15.02 11.62Q15.02 13.06 15.64 14.18Q16.25 15.31 17.32 15.92Q18.38 16.54 19.73 16.54L19.73 16.54ZM39.29 5.30L40.99 5.30L40.99 17.93L39.36 17.93L39.36 15.62Q38.69 16.78 37.51 17.41Q36.34 18.05 34.82 18.05L34.82 18.05Q32.35 18.05 30.92 16.67Q29.50 15.29 29.50 12.62L29.50 12.62L29.50 5.30L31.20 5.30L31.20 12.46Q31.20 14.45 32.18 15.48Q33.17 16.51 34.99 16.51L34.99 16.51Q36.98 16.51 38.14 15.30Q39.29 14.09 39.29 11.93L39.29 11.93L39.29 5.30ZM52.20 5.21Q54.58 5.21 55.98 6.59Q57.38 7.97 57.38 10.61L57.38 10.61L57.38 17.93L55.68 17.93L55.68 10.78Q55.68 8.81 54.70 7.78Q53.71 6.74 51.89 6.74L51.89 6.74Q49.85 6.74 48.66 7.96Q47.47 9.17 47.47 11.30L47.47 11.30L47.47 17.93L45.77 17.93L45.77 5.30L47.40 5.30L47.40 7.63Q48.10 6.48 49.33 5.84Q50.57 5.21 52.20 5.21L52.20 5.21ZM67.63 15.94L68.23 17.16Q67.75 17.59 67.06 17.82Q66.36 18.05 65.59 18.05L65.59 18.05Q63.82 18.05 62.86 17.09Q61.90 16.13 61.90 14.38L61.90 14.38L61.90 2.54L63.60 2.54L63.60 5.30L67.42 5.30L67.42 6.74L63.60 6.74L63.60 14.28Q63.60 15.41 64.15 16.00Q64.70 16.58 65.76 16.58L65.76 16.58Q66.91 16.58 67.63 15.94L67.63 15.94ZM76.27 16.54Q77.45 16.54 78.44 16.12Q79.44 15.70 80.14 14.88L80.14 14.88L81.10 15.98Q80.26 16.99 79.01 17.52Q77.76 18.05 76.25 18.05L76.25 18.05Q74.30 18.05 72.79 17.22Q71.28 16.39 70.44 14.93Q69.60 13.46 69.60 11.62L69.60 11.62Q69.60 9.77 70.40 8.30Q71.21 6.84 72.62 6.02Q74.04 5.21 75.84 5.21L75.84 5.21Q77.52 5.21 78.88 5.98Q80.23 6.74 81.04 8.11Q81.84 9.48 81.89 11.23L81.89 11.23L71.52 13.25Q72 14.78 73.26 15.66Q74.52 16.54 76.27 16.54L76.27 16.54ZM75.84 6.67Q74.52 6.67 73.48 7.28Q72.43 7.90 71.84 8.99Q71.26 10.08 71.26 11.50L71.26 11.50Q71.26 11.86 71.28 12.02L71.28 12.02L80.18 10.30Q79.90 8.71 78.72 7.69Q77.54 6.67 75.84 6.67L75.84 6.67ZM87.00 7.78Q87.60 6.50 88.79 5.86Q89.98 5.21 91.73 5.21L91.73 5.21L91.73 6.86L91.32 6.84Q89.33 6.84 88.20 8.06Q87.07 9.29 87.07 11.50L87.07 11.50L87.07 17.93L85.37 17.93L85.37 5.30L87.00 5.30L87.00 7.78ZM98.69 1.44Q97.58 1.44 97.02 2.04Q96.46 2.64 96.46 3.82L96.46 3.82L96.46 5.30L100.34 5.30L100.34 6.74L96.50 6.74L96.50 17.93L94.80 17.93L94.80 3.74Q94.80 2.02 95.80 1.01Q96.79 0 98.62 0L98.62 0Q99.34 0 100.01 0.20Q100.68 0.41 101.14 0.79L101.14 0.79L100.56 2.06Q99.82 1.44 98.69 1.44L98.69 1.44ZM106.20 18.05Q104.50 18.05 103.57 17.09Q102.65 16.13 102.65 14.42L102.65 14.42L102.65 0.12L104.35 0.12L104.35 14.28Q104.35 15.41 104.88 16.00Q105.41 16.58 106.46 16.58L106.46 16.58Q107.14 16.58 107.62 16.37L107.62 16.37L107.74 17.78Q106.99 18.05 106.20 18.05L106.20 18.05ZM114.98 18.05Q113.16 18.05 111.70 17.22Q110.23 16.39 109.39 14.93Q108.55 13.46 108.55 11.62L108.55 11.62Q108.55 9.77 109.39 8.30Q110.23 6.84 111.70 6.02Q113.16 5.21 114.98 5.21L114.98 5.21Q116.81 5.21 118.27 6.02Q119.74 6.84 120.56 8.30Q121.39 9.77 121.39 11.62L121.39 11.62Q121.39 13.46 120.56 14.93Q119.74 16.39 118.27 17.22Q116.81 18.05 114.98 18.05L114.98 18.05ZM114.98 16.54Q116.33 16.54 117.40 15.92Q118.46 15.31 119.06 14.18Q119.66 13.06 119.66 11.62L119.66 11.62Q119.66 10.18 119.06 9.05Q118.46 7.92 117.40 7.31Q116.33 6.70 114.98 6.70L114.98 6.70Q113.64 6.70 112.57 7.31Q111.50 7.92 110.89 9.05Q110.28 10.18 110.28 11.62L110.28 11.62Q110.28 13.06 110.89 14.18Q111.50 15.31 112.57 15.92Q113.64 16.54 114.98 16.54L114.98 16.54ZM142.63 5.30L144.34 5.30L144.34 12.29Q144.34 15.10 142.99 16.57Q141.65 18.05 139.03 18.05L139.03 18.05Q137.38 18.05 136.26 17.41Q135.14 16.78 134.54 15.38L134.54 15.38Q133.94 16.75 132.84 17.40Q131.74 18.05 130.06 18.05L130.06 18.05Q127.44 18.05 126.10 16.57Q124.75 15.10 124.75 12.29L124.75 12.29L124.75 5.30L126.46 5.30L126.46 12.14Q126.46 14.38 127.32 15.44Q128.18 16.51 130.06 16.51L130.06 16.51Q131.90 16.51 132.80 15.43Q133.70 14.35 133.70 12.10L133.70 12.10L133.70 5.30L135.41 5.30L135.41 12.10Q135.41 14.35 136.30 15.43Q137.18 16.51 139.06 16.51L139.06 16.51Q140.88 16.51 141.76 15.44Q142.63 14.38 142.63 12.14L142.63 12.14L142.63 5.30Z" transform="translate(36, 8.976)"></path></svg>